<?xml version="1.0"?>
<svg xmlns="http://www.w3.org/2000/svg" viewBox="0 0 16 16">
    <path style="line-height:normal;text-indent:0;text-align:start;text-decoration-line:none;text-decoration-style:solid;text-decoration-color:#000;text-transform:none;block-progression:tb;isolation:auto;mix-blend-mode:normal" d="M 7.5 1 C 3.9160714 1 1 3.9160714 1 7.5 C 1 11.083929 3.9160714 14 7.5 14 C 11.083929 14 14 11.083929 14 7.5 C 14 3.9160714 11.083929 1 7.5 1 z M 7.5 2 C 10.543488 2 13 4.4565116 13 7.5 C 13 8.841463 12.520948 10.066223 11.726562 11.019531 L 3.9804688 3.2734375 C 4.933777 2.4790524 6.1585368 2 7.5 2 z M 3.2734375 3.9804688 L 11.019531 11.726562 C 10.066223 12.520948 8.841463 13 7.5 13 C 4.4565116 13 2 10.543488 2 7.5 C 2 6.1585368 2.4790524 4.933777 3.2734375 3.9804688 z" font-weight="400" font-family="sans-serif" white-space="normal" overflow="visible"/>
</svg>
